# xmcd
#
# Track frame offsets:
#  150
#  25567
#  52031
#  79832
#  113558
#  140941
#  163468
#  186893
#  215544
#  238868
#  268514
#  315479
#
# Disc length: 4661 seconds
#
# Revision: 0
# Processed by: cddbd v1.5.1PL2 Copyright (c) Steve Scherf et al.
# Submitted via: Collectorz.com_Music_Collector 6.10
#
DISCID=ad12330c
DTITLE=Maxi 45 tours 80 - Maxi 45 tours 80 [CD3)
DYEAR=2005
DGENRE=Dance 80's
TTITLE0=Sparks - When I'm with you
TTITLE1=Vivien Savage - La p'tite lady (un petit chat sauvage)
TTITLE2=Do Piano - Again
TTITLE3=Ryan Paris - Dolce vita
TTITLE4=Dennis' Twist - Tu dis que tu l'M
TTITLE5=Christine Roque - Premiers frissons d'amour
TTITLE6=Kazero - Thaï na na
TTITLE7=MC Miker G and Deejay Sven - Holiday rap
TTITLE8=Annabelle - Fuis, Lawrence d'Arabie
TTITLE9=Jakie Quartz - A la vie, à l'amour
TTITLE10=Kimera and The Operaiders - The lost opera
TTITLE11=Data track
EXTD=
EXTT0=
EXTT1=
EXTT2=
EXTT3=
EXTT4=
EXTT5=
EXTT6=
EXTT7=
EXTT8=
EXTT9=
EXTT10=
EXTT11=
PLAYORDER=
